<mxfile host="app.diagrams.net" modified="2021-12-08T04:15:42.768Z" agent="5.0 (Macintosh; Intel Mac OS X 10_15_7) AppleWebKit/537.36 (KHTML, like Gecko) Chrome/96.0.4664.55 Safari/537.36" etag="lqfADwtPR7NNhu1cc59B" version="15.9.1" type="github">
  <diagram id="katFqWaSLxeKHXa-BcDF" name="Page-1">
    <mxGraphModel dx="706" dy="395" grid="1" gridSize="10" guides="1" tooltips="1" connect="1" arrows="1" fold="1" page="1" pageScale="1" pageWidth="827" pageHeight="1169" math="0" shadow="0">
      <root>
        <mxCell id="0" />
        <mxCell id="1" parent="0" />
        <mxCell id="j78-BFky6pSL0FZ1kBh2-13" value="&lt;a href=&quot;https://cdn.jsdelivr.net/gh/xiaolincoder/ImageHost4@main/test.png&quot; style=&quot;box-sizing: border-box; cursor: pointer; overflow-wrap: break-word; font-family: &amp;quot;helvetica neue&amp;quot;, helvetica, arial, sans-serif; font-size: 16px;&quot;&gt;&lt;b style=&quot;font-size: 16px;&quot;&gt;&lt;font color=&quot;#ff0000&quot; style=&quot;font-size: 16px;&quot;&gt;https://cdn.jsdelivr.net/gh/&lt;/font&gt;&lt;/b&gt;&lt;font color=&quot;#00cc66&quot; style=&quot;font-size: 16px;&quot;&gt;&lt;b style=&quot;font-size: 16px;&quot;&gt;xiaolincoder/ImageHost4@main/test.png&lt;/b&gt;&lt;/font&gt;&lt;/a&gt;" style="rounded=0;whiteSpace=wrap;html=1;fontSize=16;fillColor=#f9f7ed;strokeColor=none;" vertex="1" parent="1">
          <mxGeometry x="310" y="180" width="560" height="60" as="geometry" />
        </mxCell>
        <mxCell id="j78-BFky6pSL0FZ1kBh2-15" value="红色部分：&lt;span style=&quot;font-family: &amp;quot;helvetica neue&amp;quot;, helvetica, arial, sans-serif; font-size: 16px;&quot;&gt;jsdeliver cdn 加速的固定地址&lt;br style=&quot;font-size: 16px&quot;&gt;绿色部分：我保存图片的仓库路径&lt;br style=&quot;font-size: 16px&quot;&gt;&lt;/span&gt;" style="text;html=1;align=left;verticalAlign=middle;resizable=0;points=[];autosize=1;strokeColor=#36393d;fillColor=#ffff88;fontSize=16;labelBackgroundColor=none;" vertex="1" parent="1">
          <mxGeometry x="440" y="250" width="300" height="50" as="geometry" />
        </mxCell>
      </root>
    </mxGraphModel>
  </diagram>
</mxfile>
